# xmcd CD database file
#
# Track frame offsets:
#	150
#	16295
#	34005
#	52210
#	69567
#	83760
#	101282
#	120500
#	137927
#	157600
#	171242
#
# Disc length: 2295 seconds
#
# Revision: 0
# Processed by: cddbd v1.5.1PL0 Copyright (c) Steve Scherf et al.
# Submitted via: CDex 1.51
#
DISCID=8608f50b
DTITLE=川井憲次 - 機動警察パトレイバー TV SERIES and NEW OVA MUSIC COMPLETE Disc4 VOCAL COLLECTION
DYEAR=1900
DGENRE=アニメ
TTITLE0=仁藤優子/そのままの君でいて
TTITLE1=笠原弘子/コンディション・グリーン〜緊急発進〜
TTITLE2=冨永みーな/守りたいの
TTITLE3=DAIZO/YOU ARE THE ONE
TTITLE4=谷本憲彦/IDLING for you
TTITLE5=DYNAMITE SHIGE/LONG SILENCE
TTITLE6=兵藤まこ/100カラットの未来
TTITLE7=冨永みーな/マイ・ペース〜My Way My Pace〜
TTITLE8=JA-JA/パラダイスの確率
TTITLE9=KISSME QUICK/MIDNIGHT BLUE
TTITLE10=ジングルBタイプ
EXTD=
EXTT0=
EXTT1=
EXTT2=
EXTT3=
EXTT4=
EXTT5=
EXTT6=
EXTT7=
EXTT8=
EXTT9=
EXTT10=
PLAYORDER=
